Urbanist-Thin.ufo
<glyph name="dollar" format="2">
	<advance width="1158"/>
	<unicode hex="0024"/>
	<outline>
		<contour>
			<point x="578" y="1358" type="curve"/>
			<point x="760" y="1358"/>
			<point x="964" y="1276"/>
			<point x="1020" y="1118" type="curve"/>
			<point x="1078" y="1138" type="line"/>
			<point x="1012" y="1310"/>
			<point x="808" y="1408"/>
			<point x="610" y="1416" type="curve"/>
			<point x="610" y="1624" type="line"/>
			<point x="550" y="1624" type="line"/>
			<point x="550" y="1416" type="line"/>
			<point x="304" y="1406"/>
			<point x="90" y="1262"/>
			<point x="90" y="1042" type="curve"/>
			<point x="90" y="790"/>
			<point x="300" y="718"/>
			<point x="578" y="666" type="curve"/>
			<point x="794" y="626"/>
			<point x="1008" y="546"/>
			<point x="1008" y="350" type="curve"/>
			<point x="1008" y="158"/>
			<point x="804" y="34"/>
			<point x="578" y="34" type="curve"/>
			<point x="396" y="34"/>
			<point x="192" y="116"/>
			<point x="136" y="274" type="curve"/>
			<point x="80" y="252" type="line"/>
			<point x="138" y="86"/>
			<point x="340" y="-18"/>
			<point x="550" y="-26" type="curve"/>
			<point x="550" y="-224" type="line"/>
			<point x="610" y="-224" type="line"/>
			<point x="610" y="-26" type="line"/>
			<point x="856" y="-14"/>
			<point x="1068" y="128"/>
			<point x="1068" y="350" type="curve"/>
			<point x="1068" y="576"/>
			<point x="836" y="682"/>
			<point x="578" y="730" type="curve"/>
			<point x="332" y="776"/>
			<point x="150" y="826"/>
			<point x="150" y="1042" type="curve"/>
			<point x="150" y="1232"/>
			<point x="350" y="1358"/>
		</contour>
	</outline>
</glyph>
<glyph name="ampersand" format="2">
	<advance width="1406"/>
	<unicode hex="0026"/>
	<outline>
		<contour>
			<point x="466" y="-26" type="curve" smooth="yes"/>
			<point x="646" y="-26"/>
			<point x="682" y="28"/>
			<point x="968" y="314" type="curve"/>
			<point x="1284" y="0" type="line"/>
			<point x="1326" y="42" type="line"/>
			<point x="1008" y="358" type="line"/>
			<point x="1164" y="514" type="line"/>
			<point x="1164" y="598" type="line"/>
			<point x="968" y="404" type="line"/>
			<point x="510" y="862" type="line"/>
			<point x="678" y="1030"/>
			<point x="718" y="1058"/>
			<point x="718" y="1174" type="curve" smooth="yes"/>
			<point x="718" y="1314"/>
			<point x="604" y="1426"/>
			<point x="466" y="1426" type="curve" smooth="yes"/>
			<point x="330" y="1426"/>
			<point x="216" y="1312"/>
			<point x="216" y="1174" type="curve" smooth="yes"/>
			<point x="216" y="1062"/>
			<point x="250" y="1038"/>
			<point x="424" y="862" type="curve"/>
			<point x="142" y="580"/>
			<point x="80" y="538"/>
			<point x="80" y="362" type="curve" smooth="yes"/>
			<point x="80" y="164"/>
			<point x="234" y="-26"/>
		</contour>
		<contour>
			<point x="466" y="34" type="curve" smooth="yes"/>
			<point x="284" y="34"/>
			<point x="142" y="178"/>
			<point x="142" y="358" type="curve" smooth="yes"/>
			<point x="142" y="516"/>
			<point x="188" y="540"/>
			<point x="466" y="820" type="curve"/>
			<point x="926" y="360" type="line"/>
			<point x="656" y="86"/>
			<point x="628" y="34"/>
		</contour>
		<contour>
			<point x="466" y="904" type="curve"/>
			<point x="312" y="1060"/>
			<point x="276" y="1080"/>
			<point x="276" y="1174" type="curve" smooth="yes"/>
			<point x="276" y="1274"/>
			<point x="356" y="1366"/>
			<point x="466" y="1366" type="curve" smooth="yes"/>
			<point x="572" y="1366"/>
			<point x="658" y="1280"/>
			<point x="658" y="1174" type="curve" smooth="yes"/>
			<point x="658" y="1082"/>
			<point x="626" y="1062"/>
		</contour>
	</outline>
</glyph>
<glyph name="quotesingle" format="2">
	<advance width="220"/>
	<unicode hex="0027"/>
	<outline>
		<contour>
			<point x="80" y="878" type="line"/>
			<point x="140" y="878" type="line"/>
			<point x="140" y="1400" type="line"/>
			<point x="80" y="1400" type="line"/>
		</contour>
	</outline>
</glyph>
<glyph name="parenright" format="2">
	<advance width="554"/>
	<unicode hex="0029"/>
	<outline>
		<contour>
			<point x="100" y="-112" type="curve"/>
			<point x="160" y="-112" type="line"/>
			<point x="358" y="66"/>
			<point x="434" y="364"/>
			<point x="434" y="644" type="curve" smooth="yes"/>
			<point x="434" y="932"/>
			<point x="356" y="1226"/>
			<point x="160" y="1400" type="curve"/>
			<point x="100" y="1400" type="line"/>
			<point x="292" y="1188"/>
			<point x="362" y="954"/>
			<point x="374" y="644" type="curve"/>
			<point x="362" y="328"/>
			<point x="286" y="86"/>
		</contour>
	</outline>
</glyph>
<glyph name="asterisk" format="2">
	<advance width="690"/>
	<unicode hex="002A"/>
	<outline>
		<contour>
			<point x="186" y="866" type="line"/>
			<point x="330" y="1064" type="line"/>
			<point x="472" y="866" type="line"/>
			<point x="522" y="902" type="line"/>
			<point x="378" y="1098" type="line"/>
			<point x="610" y="1174" type="line"/>
			<point x="592" y="1230" type="line"/>
			<point x="360" y="1156" type="line"/>
			<point x="360" y="1400" type="line"/>
			<point x="300" y="1400" type="line"/>
			<point x="300" y="1156" type="line"/>
			<point x="68" y="1230" type="line"/>
			<point x="50" y="1174" type="line"/>
			<point x="280" y="1098" type="line"/>
			<point x="138" y="902" type="line"/>
		</contour>
	</outline>
</glyph>
<glyph name="period" format="2">
	<advance width="290"/>
	<unicode hex="002E"/>
	<outline>
		<contour>
			<point x="124" y="-26" type="curve" smooth="yes"/>
			<point x="150" y="-26"/>
			<point x="170" y="-6"/>
			<point x="170" y="20" type="curve" smooth="yes"/>
			<point x="170" y="44"/>
			<point x="150" y="64"/>
			<point x="124" y="64" type="curve" smooth="yes"/>
			<point x="100" y="64"/>
			<point x="80" y="44"/>
			<point x="80" y="20" type="curve" smooth="yes"/>
			<point x="80" y="-6"/>
			<point x="100" y="-26"/>
		</contour>
	</outline>
</glyph>
<glyph name="slash" format="2">
	<advance width="624"/>
	<unicode hex="002F"/>
	<outline>
		<contour>
			<point x="544" y="1400" type="line"/>
			<point x="484" y="1400" type="line"/>
			<point x="80" y="-112" type="line"/>
			<point x="140" y="-112" type="line"/>
		</contour>
	</outline>
</glyph>
<glyph name="two" format="2">
	<advance width="1048"/>
	<unicode hex="0032"/>
	<outline>
		<contour>
			<point x="80" y="0" type="line"/>
			<point x="928" y="0" type="line"/>
			<point x="928" y="60" type="line"/>
			<point x="178" y="60" type="line"/>
			<point x="454" y="314"/>
			<point x="896" y="780"/>
			<point x="896" y="1026" type="curve" smooth="yes"/>
			<point x="896" y="1246"/>
			<point x="718" y="1426"/>
			<point x="500" y="1426" type="curve" smooth="yes"/>
			<point x="280" y="1426"/>
			<point x="102" y="1246"/>
			<point x="102" y="1026" type="curve"/>
			<point x="162" y="1026" type="line"/>
			<point x="162" y="1212"/>
			<point x="314" y="1366"/>
			<point x="500" y="1366" type="curve" smooth="yes"/>
			<point x="686" y="1366"/>
			<point x="836" y="1212"/>
			<point x="836" y="1026" type="curve" smooth="yes"/>
			<point x="836" y="782"/>
			<point x="400" y="372"/>
			<point x="80" y="52" type="curve"/>
		</contour>
	</outline>
</glyph>
<glyph name="seven" format="2">
	<advance width="1046"/>
	<unicode hex="0037"/>
	<outline>
		<contour>
			<point x="164" y="0" type="line"/>
			<point x="232" y="0" type="line"/>
			<point x="1006" y="1340" type="line"/>
			<point x="1006" y="1400" type="line"/>
			<point x="40" y="1400" type="line"/>
			<point x="40" y="1340" type="line"/>
			<point x="936" y="1340" type="line"/>
		</contour>
	</outline>
</glyph>
<glyph name="eight" format="2">
	<advance width="1024"/>
	<unicode hex="0038"/>
	<outline>
		<contour>
			<point x="512" y="-26" type="curve" smooth="yes"/>
			<point x="750" y="-26"/>
			<point x="944" y="152"/>
			<point x="944" y="370" type="curve" smooth="yes"/>
			<point x="944" y="536"/>
			<point x="832" y="678"/>
			<point x="674" y="738" type="curve"/>
			<point x="808" y="794"/>
			<point x="906" y="920"/>
			<point x="906" y="1066" type="curve" smooth="yes"/>
			<point x="906" y="1264"/>
			<point x="728" y="1426"/>
			<point x="512" y="1426" type="curve" smooth="yes"/>
			<point x="296" y="1426"/>
			<point x="118" y="1264"/>
			<point x="118" y="1066" type="curve" smooth="yes"/>
			<point x="118" y="920"/>
			<point x="216" y="794"/>
			<point x="350" y="738" type="curve"/>
			<point x="194" y="678"/>
			<point x="80" y="536"/>
			<point x="80" y="370" type="curve" smooth="yes"/>
			<point x="80" y="152"/>
			<point x="274" y="-26"/>
		</contour>
		<contour>
			<point x="512" y="34" type="curve" smooth="yes"/>
			<point x="312" y="34"/>
			<point x="146" y="184"/>
			<point x="146" y="370" type="curve" smooth="yes"/>
			<point x="146" y="556"/>
			<point x="312" y="706"/>
			<point x="512" y="706" type="curve" smooth="yes"/>
			<point x="716" y="706"/>
			<point x="878" y="556"/>
			<point x="878" y="370" type="curve" smooth="yes"/>
			<point x="878" y="184"/>
			<point x="716" y="34"/>
		</contour>
		<contour>
			<point x="512" y="766" type="curve" smooth="yes"/>
			<point x="330" y="766"/>
			<point x="184" y="900"/>
			<point x="184" y="1066" type="curve" smooth="yes"/>
			<point x="184" y="1232"/>
			<point x="330" y="1366"/>
			<point x="512" y="1366" type="curve" smooth="yes"/>
			<point x="694" y="1366"/>
			<point x="840" y="1232"/>
			<point x="840" y="1066" type="curve" smooth="yes"/>
			<point x="840" y="900"/>
			<point x="694" y="766"/>
		</contour>
	</outline>
</glyph>
<glyph name="less" format="2">
	<advance width="1160"/>
	<unicode hex="003C"/>
	<outline>
		<contour>
			<point x="1080" y="268" type="line"/>
			<point x="1080" y="330" type="line"/>
			<point x="134" y="600" type="line"/>
			<point x="1080" y="868" type="line"/>
			<point x="1080" y="932" type="line"/>
			<point x="80" y="646" type="line"/>
			<point x="80" y="552" type="line"/>
		</contour>
	</outline>
</glyph>
<glyph name="equal" format="2">
	<advance width="1160"/>
	<unicode hex="003D"/>
	<outline>
		<contour>
			<point x="80" y="378" type="line"/>
			<point x="1080" y="378" type="line"/>
			<point x="1080" y="438" type="line"/>
			<point x="80" y="438" type="line"/>
		</contour>
		<contour>
			<point x="80" y="762" type="line"/>
			<point x="1080" y="762" type="line"/>
			<point x="1080" y="822" type="line"/>
			<point x="80" y="822" type="line"/>
		</contour>
	</outline>
</glyph>
<glyph name="greater" format="2">
	<advance width="1160"/>
	<unicode hex="003E"/>
	<outline>
		<contour>
			<point x="80" y="268" type="line"/>
			<point x="1080" y="552" type="line"/>
			<point x="1080" y="646" type="line"/>
			<point x="80" y="932" type="line"/>
			<point x="80" y="868" type="line"/>
			<point x="1026" y="600" type="line"/>
			<point x="80" y="330" type="line"/>
		</contour>
	</outline>
</glyph>
<glyph name="B" format="2">
	<advance width="1070"/>
	<unicode hex="0042"/>
	<outline>
		<contour>
			<point x="120" y="0" type="line"/>
			<point x="630" y="0" type="line" smooth="yes"/>
			<point x="828" y="0"/>
			<point x="990" y="152"/>
			<point x="990" y="402" type="curve" smooth="yes"/>
			<point x="990" y="566"/>
			<point x="892" y="731"/>
			<point x="732" y="776" type="curve"/>
			<point x="808" y="788"/>
			<point x="912" y="912"/>
			<point x="912" y="1060" type="curve" smooth="yes"/>
			<point x="912" y="1282"/>
			<point x="756" y="1398"/>
			<point x="564" y="1398" type="curve" smooth="yes"/>
			<point x="120" y="1398" type="line"/>
		</contour>
		<contour>
			<point x="180" y="60" type="line"/>
			<point x="180" y="740" type="line"/>
			<point x="630" y="740" type="line" smooth="yes"/>
			<point x="796" y="740"/>
			<point x="930" y="578"/>
			<point x="930" y="402" type="curve" smooth="yes"/>
			<point x="930" y="206"/>
			<point x="796" y="60"/>
			<point x="630" y="60" type="curve" smooth="yes"/>
		</contour>
		<contour>
			<point x="180" y="800" type="line"/>
			<point x="180" y="1338" type="line"/>
			<point x="564" y="1338" type="line" smooth="yes"/>
			<point x="722" y="1338"/>
			<point x="852" y="1250"/>
			<point x="852" y="1060" type="curve" smooth="yes"/>
			<point x="852" y="890"/>
			<point x="722" y="800"/>
			<point x="564" y="800" type="curve" smooth="yes"/>
		</contour>
	</outline>
</glyph>
<glyph name="D" format="2">
	<advance width="1342"/>
	<unicode hex="0044"/>
	<outline>
		<contour>
			<point x="120" y="0" type="line"/>
			<point x="582" y="0" type="line" smooth="yes"/>
			<point x="970" y="0"/>
			<point x="1282" y="314"/>
			<point x="1282" y="700" type="curve" smooth="yes"/>
			<point x="1282" y="1086"/>
			<point x="970" y="1400"/>
			<point x="582" y="1400" type="curve" smooth="yes"/>
			<point x="120" y="1400" type="line"/>
		</contour>
		<contour>
			<point x="180" y="60" type="line"/>
			<point x="180" y="1340" type="line"/>
			<point x="582" y="1340" type="line" smooth="yes"/>
			<point x="936" y="1340"/>
			<point x="1222" y="1054"/>
			<point x="1222" y="700" type="curve" smooth="yes"/>
			<point x="1222" y="346"/>
			<point x="938" y="60"/>
			<point x="582" y="60" type="curve" smooth="yes"/>
		</contour>
	</outline>
</glyph>
<glyph name="F" format="2">
	<advance width="952"/>
	<unicode hex="0046"/>
	<outline>
		<contour>
			<point x="120" y="0" type="line"/>
			<point x="180" y="0" type="line"/>
			<point x="180" y="720" type="line"/>
			<point x="836" y="720" type="line"/>
			<point x="836" y="780" type="line"/>
			<point x="180" y="780" type="line"/>
			<point x="180" y="1340" type="line"/>
			<point x="932" y="1340" type="line"/>
			<point x="932" y="1400" type="line"/>
			<point x="120" y="1400" type="line"/>
		</contour>
	</outline>
</glyph>
<glyph name="H" format="2">
	<advance width="1214"/>
	<unicode hex="0048"/>
	<outline>
		<contour>
			<point x="1034" y="1400" type="line"/>
			<point x="1034" y="780" type="line"/>
			<point x="180" y="780" type="line"/>
			<point x="180" y="1400" type="line"/>
			<point x="120" y="1400" type="line"/>
			<point x="120" y="0" type="line"/>
			<point x="180" y="0" type="line"/>
			<point x="180" y="720" type="line"/>
			<point x="1034" y="720" type="line"/>
			<point x="1034" y="0" type="line"/>
			<point x="1094" y="0" type="line"/>
			<point x="1094" y="1400" type="line"/>
		</contour>
	</outline>
</glyph>
<glyph name="K" format="2">
	<advance width="984"/>
	<unicode hex="004B"/>
	<outline>
		<contour>
			<point x="924" y="0" type="line"/>
			<point x="378" y="738" type="line"/>
			<point x="934" y="1400" type="line"/>
			<point x="856" y="1400" type="line"/>
			<point x="180" y="594" type="line"/>
			<point x="180" y="1400" type="line"/>
			<point x="120" y="1400" type="line"/>
			<point x="120" y="0" type="line"/>
			<point x="180" y="0" type="line"/>
			<point x="180" y="500" type="line"/>
			<point x="338" y="690" type="line"/>
			<point x="848" y="0" type="line"/>
		</contour>
	</outline>
</glyph>
<glyph name="M" format="2">
	<advance width="1692"/>
	<unicode hex="004D"/>
	<outline>
		<contour>
			<point x="120" y="0" type="line"/>
			<point x="180" y="0" type="line"/>
			<point x="418" y="1228" type="line"/>
			<point x="830" y="138" type="line"/>
			<point x="860" y="138" type="line"/>
			<point x="1272" y="1228" type="line"/>
			<point x="1510" y="0" type="line"/>
			<point x="1572" y="0" type="line"/>
			<point x="1300" y="1400" type="line"/>
			<point x="1274" y="1400" type="line"/>
			<point x="846" y="268" type="line"/>
			<point x="416" y="1400" type="line"/>
			<point x="390" y="1400" type="line"/>
		</contour>
	</outline>
</glyph>
<glyph name="N" format="2">
	<advance width="1278"/>
	<unicode hex="004E"/>
	<outline>
		<contour>
			<point x="150" y="0" type="line"/>
			<point x="210" y="0" type="line"/>
			<point x="210" y="1292" type="line"/>
			<point x="1064" y="0" type="line"/>
			<point x="1128" y="0" type="line"/>
			<point x="1128" y="1400" type="line"/>
			<point x="1068" y="1400" type="line"/>
			<point x="1068" y="108" type="line"/>
			<point x="216" y="1400" type="line"/>
			<point x="150" y="1400" type="line"/>
		</contour>
	</outline>
</glyph>
<glyph name="O" format="2">
	<advance width="1540"/>
	<unicode hex="004F"/>
	<outline>
		<contour>
			<point x="770" y="-26" type="curve" smooth="yes"/>
			<point x="1150" y="-26"/>
			<point x="1460" y="300"/>
			<point x="1460" y="700" type="curve" smooth="yes"/>
			<point x="1460" y="1100"/>
			<point x="1150" y="1426"/>
			<point x="770" y="1426" type="curve" smooth="yes"/>
			<point x="390" y="1426"/>
			<point x="80" y="1100"/>
			<point x="80" y="700" type="curve" smooth="yes"/>
			<point x="80" y="300"/>
			<point x="390" y="-26"/>
		</contour>
		<contour>
			<point x="770" y="34" type="curve" smooth="yes"/>
			<point x="422" y="34"/>
			<point x="140" y="334"/>
			<point x="140" y="700" type="curve" smooth="yes"/>
			<point x="140" y="1060"/>
			<point x="418" y="1366"/>
			<point x="770" y="1366" type="curve" smooth="yes"/>
			<point x="1118" y="1366"/>
			<point x="1400" y="1064"/>
			<point x="1400" y="700" type="curve" smooth="yes"/>
			<point x="1400" y="340"/>
			<point x="1122" y="34"/>
		</contour>
	</outline>
</glyph>
<glyph name="P" format="2">
	<advance width="1000"/>
	<unicode hex="0050"/>
	<outline>
		<contour>
			<point x="120" y="0" type="line"/>
			<point x="180" y="0" type="line"/>
			<point x="180" y="600" type="line"/>
			<point x="528" y="600" type="line" smooth="yes"/>
			<point x="742" y="600"/>
			<point x="920" y="770"/>
			<point x="920" y="1000" type="curve" smooth="yes"/>
			<point x="920" y="1228"/>
			<point x="748" y="1400"/>
			<point x="528" y="1400" type="curve" smooth="yes"/>
			<point x="120" y="1400" type="line"/>
		</contour>
		<contour>
			<point x="180" y="660" type="line"/>
			<point x="180" y="1340" type="line"/>
			<point x="528" y="1340" type="line" smooth="yes"/>
			<point x="710" y="1340"/>
			<point x="860" y="1196"/>
			<point x="860" y="1000" type="curve" smooth="yes"/>
			<point x="860" y="804"/>
			<point x="710" y="660"/>
			<point x="528" y="660" type="curve" smooth="yes"/>
		</contour>
	</outline>
</glyph>
<glyph name="R" format="2">
	<advance width="1070"/>
	<unicode hex="0052"/>
	<outline>
		<contour>
			<point x="150" y="0" type="line"/>
			<point x="210" y="0" type="line"/>
			<point x="210" y="600" type="line"/>
			<point x="542" y="600" type="line"/>
			<point x="890" y="0" type="line"/>
			<point x="960" y="0" type="line"/>
			<point x="612" y="602" type="line"/>
			<point x="810" y="618"/>
			<point x="970" y="782"/>
			<point x="970" y="1000" type="curve" smooth="yes"/>
			<point x="970" y="1228"/>
			<point x="798" y="1400"/>
			<point x="578" y="1400" type="curve" smooth="yes"/>
			<point x="150" y="1400" type="line"/>
		</contour>
		<contour>
			<point x="210" y="660" type="line"/>
			<point x="210" y="1340" type="line"/>
			<point x="578" y="1340" type="line" smooth="yes"/>
			<point x="760" y="1340"/>
			<point x="910" y="1196"/>
			<point x="910" y="1000" type="curve" smooth="yes"/>
			<point x="910" y="804"/>
			<point x="760" y="660"/>
			<point x="578" y="660" type="curve" smooth="yes"/>
		</contour>
	</outline>
</glyph>
<glyph name="S" format="2">
	<advance width="1198"/>
	<unicode hex="0053"/>
	<outline>
		<contour>
			<point x="598" y="-26" type="curve" smooth="yes"/>
			<point x="858" y="-26"/>
			<point x="1088" y="120"/>
			<point x="1088" y="350" type="curve" smooth="yes"/>
			<point x="1088" y="576"/>
			<point x="856" y="682"/>
			<point x="598" y="730" type="curve" smooth="yes"/>
			<point x="352" y="776"/>
			<point x="170" y="826"/>
			<point x="170" y="1042" type="curve" smooth="yes"/>
			<point x="170" y="1232"/>
			<point x="370" y="1358"/>
			<point x="598" y="1358" type="curve" smooth="yes"/>
			<point x="780" y="1358"/>
			<point x="984" y="1276"/>
			<point x="1040" y="1118" type="curve"/>
			<point x="1098" y="1138" type="line"/>
			<point x="1028" y="1320"/>
			<point x="806" y="1418"/>
			<point x="598" y="1418" type="curve" smooth="yes"/>
			<point x="340" y="1418"/>
			<point x="110" y="1272"/>
			<point x="110" y="1042" type="curve" smooth="yes"/>
			<point x="110" y="790"/>
			<point x="320" y="718"/>
			<point x="598" y="666" type="curve" smooth="yes"/>
			<point x="814" y="626"/>
			<point x="1028" y="546"/>
			<point x="1028" y="350" type="curve" smooth="yes"/>
			<point x="1028" y="158"/>
			<point x="824" y="34"/>
			<point x="598" y="34" type="curve" smooth="yes"/>
			<point x="416" y="34"/>
			<point x="212" y="116"/>
			<point x="156" y="274" type="curve"/>
			<point x="100" y="252" type="line"/>
			<point x="160" y="78"/>
			<point x="380" y="-26"/>
		</contour>
	</outline>
</glyph>
<glyph name="U" format="2">
	<advance width="1300"/>
	<unicode hex="0055"/>
	<outline>
		<contour>
			<point x="650" y="-26" type="curve" smooth="yes"/>
			<point x="986" y="-26"/>
			<point x="1180" y="246"/>
			<point x="1180" y="584" type="curve" smooth="yes"/>
			<point x="1180" y="1400" type="line"/>
			<point x="1120" y="1400" type="line"/>
			<point x="1120" y="584" type="line" smooth="yes"/>
			<point x="1120" y="288"/>
			<point x="958" y="34"/>
			<point x="650" y="34" type="curve" smooth="yes"/>
			<point x="346" y="34"/>
			<point x="180" y="284"/>
			<point x="180" y="584" type="curve" smooth="yes"/>
			<point x="180" y="1400" type="line"/>
			<point x="120" y="1400" type="line"/>
			<point x="120" y="584" type="line" smooth="yes"/>
			<point x="120" y="246"/>
			<point x="314" y="-26"/>
		</contour>
	</outline>
</glyph>
<glyph name="W" format="2">
	<advance width="1712"/>
	<unicode hex="0057"/>
	<outline>
		<contour>
			<point x="458" y="0" type="line"/>
			<point x="536" y="0" type="line"/>
			<point x="856" y="1250" type="line"/>
			<point x="1176" y="0" type="line"/>
			<point x="1256" y="0" type="line"/>
			<point x="1612" y="1400" type="line"/>
			<point x="1550" y="1400" type="line"/>
			<point x="1216" y="86" type="line"/>
			<point x="880" y="1400" type="line"/>
			<point x="832" y="1400" type="line"/>
			<point x="498" y="86" type="line"/>
			<point x="162" y="1400" type="line"/>
			<point x="100" y="1400" type="line"/>
		</contour>
	</outline>
</glyph>
<glyph name="Z" format="2">
	<advance width="1372"/>
	<unicode hex="005A"/>
	<outline>
		<contour>
			<point x="120" y="0" type="line"/>
			<point x="1252" y="0" type="line"/>
			<point x="1252" y="60" type="line"/>
			<point x="198" y="60" type="line"/>
			<point x="1252" y="1340" type="line"/>
			<point x="1252" y="1400" type="line"/>
			<point x="120" y="1400" type="line"/>
			<point x="120" y="1340" type="line"/>
			<point x="1174" y="1340" type="line"/>
			<point x="120" y="60" type="line"/>
		</contour>
	</outline>
</glyph>
<glyph name="bracketleft" format="2">
	<advance width="460"/>
	<unicode hex="005B"/>
	<outline>
		<contour>
			<point x="360" y="-52" type="line"/>
			<point x="180" y="-52" type="line"/>
			<point x="180" y="1340" type="line"/>
			<point x="360" y="1340" type="line"/>
			<point x="360" y="1400" type="line"/>
			<point x="120" y="1400" type="line"/>
			<point x="120" y="-112" type="line"/>
			<point x="360" y="-112" type="line"/>
		</contour>
	</outline>
</glyph>
<glyph name="backslash" format="2">
	<advance width="626"/>
	<unicode hex="005C"/>
	<outline>
		<contour>
			<point x="486" y="-112" type="line"/>
			<point x="546" y="-112" type="line"/>
			<point x="140" y="1400" type="line"/>
			<point x="80" y="1400" type="line"/>
		</contour>
	</outline>
</glyph>
<glyph name="asciicircum" format="2">
	<advance width="652"/>
	<unicode hex="005E"/>
	<outline>
		<contour>
			<point x="80" y="1000" type="line"/>
			<point x="142" y="1000" type="line"/>
			<point x="326" y="1502" type="line"/>
			<point x="508" y="1000" type="line"/>
			<point x="572" y="1000" type="line"/>
			<point x="336" y="1650" type="line"/>
			<point x="316" y="1650" type="line"/>
		</contour>
	</outline>
</glyph>
<glyph name="d" format="2">
	<advance width="1204"/>
	<unicode hex="0064"/>
	<outline>
		<contour>
			<point x="994" y="1500" type="line"/>
			<point x="994" y="768" type="line"/>
			<point x="922" y="924"/>
			<point x="780" y="1028"/>
			<point x="586" y="1028" type="curve"/>
			<point x="296" y="1028"/>
			<point x="60" y="792"/>
			<point x="60" y="500" type="curve"/>
			<point x="60" y="210"/>
			<point x="296" y="-26"/>
			<point x="586" y="-26" type="curve"/>
			<point x="780" y="-26"/>
			<point x="922" y="78"/>
			<point x="994" y="234" type="curve"/>
			<point x="994" y="0" type="line"/>
			<point x="1054" y="0" type="line"/>
			<point x="1054" y="1500" type="line"/>
		</contour>
		<contour>
			<point x="586" y="34" type="curve"/>
			<point x="336" y="34"/>
			<point x="120" y="238"/>
			<point x="120" y="500" type="curve"/>
			<point x="120" y="758"/>
			<point x="330" y="968"/>
			<point x="586" y="968" type="curve"/>
			<point x="840" y="968"/>
			<point x="990" y="762"/>
			<point x="990" y="500" type="curve"/>
			<point x="990" y="244"/>
			<point x="844" y="34"/>
		</contour>
	</outline>
</glyph>
<glyph name="g" format="2">
	<advance width="1136"/>
	<unicode hex="0067"/>
	<outline>
		<contour>
			<point x="956" y="1000" type="line"/>
			<point x="956" y="770" type="line"/>
			<point x="882" y="924"/>
			<point x="742" y="1028"/>
			<point x="560" y="1028" type="curve"/>
			<point x="284" y="1028"/>
			<point x="60" y="792"/>
			<point x="60" y="500" type="curve"/>
			<point x="60" y="210"/>
			<point x="284" y="-26"/>
			<point x="560" y="-26" type="curve"/>
			<point x="742" y="-26"/>
			<point x="882" y="78"/>
			<point x="956" y="232" type="curve"/>
			<point x="956" y="-50" type="line"/>
			<point x="956" y="-250"/>
			<point x="754" y="-440"/>
			<point x="548" y="-440" type="curve"/>
			<point x="370" y="-440"/>
			<point x="180" y="-290"/>
			<point x="146" y="-110" type="curve"/>
			<point x="90" y="-136" type="line"/>
			<point x="136" y="-330"/>
			<point x="340" y="-500"/>
			<point x="548" y="-500" type="curve"/>
			<point x="784" y="-500"/>
			<point x="1016" y="-282"/>
			<point x="1016" y="-50" type="curve"/>
			<point x="1016" y="1000" type="line"/>
		</contour>
		<contour>
			<point x="560" y="34" type="curve"/>
			<point x="320" y="34"/>
			<point x="120" y="240"/>
			<point x="120" y="500" type="curve"/>
			<point x="120" y="758"/>
			<point x="314" y="968"/>
			<point x="560" y="968" type="curve"/>
			<point x="804" y="968"/>
			<point x="954" y="754"/>
			<point x="954" y="500" type="curve"/>
			<point x="954" y="252"/>
			<point x="808" y="34"/>
		</contour>
	</outline>
</glyph>
<glyph name="h" format="2">
	<advance width="1038"/>
	<unicode hex="0068"/>
	<outline>
		<contour>
			<point x="958" y="554" type="line"/>
			<point x="954" y="806"/>
			<point x="778" y="1028"/>
			<point x="538" y="1028" type="curve"/>
			<point x="390" y="1028"/>
			<point x="262" y="942"/>
			<point x="180" y="796" type="curve"/>
			<point x="180" y="1500" type="line"/>
			<point x="120" y="1500" type="line"/>
			<point x="120" y="0" type="line"/>
			<point x="180" y="0" type="line"/>
			<point x="180" y="550" type="line"/>
			<point x="180" y="780"/>
			<point x="342" y="968"/>
			<point x="538" y="968" type="curve"/>
			<point x="736" y="968"/>
			<point x="898" y="780"/>
			<point x="898" y="550" type="curve"/>
			<point x="898" y="0" type="line"/>
			<point x="958" y="0" type="line"/>
		</contour>
	</outline>
</glyph>
<glyph name="i" format="2">
	<advance width="330"/>
	<unicode hex="0069"/>
	<outline>
		<contour>
			<point x="126" y="1000" type="line"/>
			<point x="126" y="0" type="line"/>
			<point x="186" y="0" type="line"/>
			<point x="186" y="1000" type="line"/>
		</contour>
		<contour>
			<point x="164" y="1200" type="curve"/>
			<point x="188" y="1200"/>
			<point x="210" y="1224"/>
			<point x="210" y="1244" type="curve"/>
			<point x="210" y="1268"/>
			<point x="188" y="1290"/>
			<point x="164" y="1290" type="curve"/>
			<point x="140" y="1290"/>
			<point x="120" y="1268"/>
			<point x="120" y="1244" type="curve"/>
			<point x="120" y="1224"/>
			<point x="140" y="1200"/>
		</contour>
	</outline>
</glyph>
<glyph name="k" format="2">
	<advance width="944"/>
	<unicode hex="006B"/>
	<outline>
		<contour>
			<point x="844" y="0" type="line"/>
			<point x="496" y="602" type="line"/>
			<point x="832" y="1000" type="line"/>
			<point x="754" y="1000" type="line"/>
			<point x="210" y="352" type="line"/>
			<point x="210" y="1500" type="line"/>
			<point x="150" y="1500" type="line"/>
			<point x="150" y="0" type="line"/>
			<point x="210" y="0" type="line"/>
			<point x="210" y="258" type="line"/>
			<point x="456" y="552" type="line"/>
			<point x="776" y="0" type="line"/>
		</contour>
	</outline>
</glyph>
<glyph name="l" format="2">
	<advance width="360"/>
	<unicode hex="006C"/>
	<outline>
		<contour>
			<point x="150" y="2" type="line"/>
			<point x="210" y="2" type="line"/>
			<point x="210" y="1500" type="line"/>
			<point x="150" y="1500" type="line"/>
		</contour>
	</outline>
</glyph>
<glyph name="m" format="2">
	<advance width="1692"/>
	<unicode hex="006D"/>
	<outline>
		<contour>
			<point x="100" y="0" type="line"/>
			<point x="160" y="0" type="line"/>
			<point x="160" y="530" type="line" smooth="yes"/>
			<point x="160" y="760"/>
			<point x="288" y="968"/>
			<point x="478" y="968" type="curve" smooth="yes"/>
			<point x="686" y="968"/>
			<point x="816" y="780"/>
			<point x="816" y="550" type="curve" smooth="yes"/>
			<point x="816" y="0" type="line"/>
			<point x="876" y="0" type="line"/>
			<point x="876" y="550" type="line" smooth="yes"/>
			<point x="876" y="780"/>
			<point x="1006" y="968"/>
			<point x="1214" y="968" type="curve" smooth="yes"/>
			<point x="1422" y="968"/>
			<point x="1532" y="780"/>
			<point x="1532" y="550" type="curve" smooth="yes"/>
			<point x="1532" y="0" type="line"/>
			<point x="1592" y="0" type="line"/>
			<point x="1592" y="550" type="line" smooth="yes"/>
			<point x="1592" y="806"/>
			<point x="1462" y="1028"/>
			<point x="1214" y="1028" type="curve" smooth="yes"/>
			<point x="1030" y="1028"/>
			<point x="908" y="920"/>
			<point x="846" y="744" type="curve"/>
			<point x="784" y="916"/>
			<point x="668" y="1028"/>
			<point x="478" y="1028" type="curve" smooth="yes"/>
			<point x="318" y="1028"/>
			<point x="236" y="934"/>
			<point x="160" y="792" type="curve"/>
			<point x="160" y="1000" type="line"/>
			<point x="100" y="1000" type="line"/>
		</contour>
	</outline>
</glyph>
<glyph name="n" format="2">
	<advance width="1038"/>
	<unicode hex="006E"/>
	<outline>
		<contour>
			<point x="938" y="554" type="line"/>
			<point x="934" y="806"/>
			<point x="758" y="1028"/>
			<point x="518" y="1028" type="curve"/>
			<point x="370" y="1028"/>
			<point x="242" y="942"/>
			<point x="160" y="796" type="curve"/>
			<point x="160" y="1000" type="line"/>
			<point x="100" y="1000" type="line"/>
			<point x="100" y="0" type="line"/>
			<point x="160" y="0" type="line"/>
			<point x="160" y="550" type="line"/>
			<point x="160" y="780"/>
			<point x="322" y="968"/>
			<point x="518" y="968" type="curve"/>
			<point x="716" y="968"/>
			<point x="878" y="780"/>
			<point x="878" y="550" type="curve"/>
			<point x="878" y="0" type="line"/>
			<point x="938" y="0" type="line"/>
		</contour>
	</outline>
</glyph>
<glyph name="o" format="2">
	<advance width="1120"/>
	<unicode hex="006F"/>
	<outline>
		<contour>
			<point x="560" y="-26" type="curve" smooth="yes"/>
			<point x="836" y="-26"/>
			<point x="1060" y="210"/>
			<point x="1060" y="500" type="curve" smooth="yes"/>
			<point x="1060" y="792"/>
			<point x="836" y="1028"/>
			<point x="560" y="1028" type="curve" smooth="yes"/>
			<point x="284" y="1028"/>
			<point x="60" y="792"/>
			<point x="60" y="500" type="curve" smooth="yes"/>
			<point x="60" y="210"/>
			<point x="284" y="-26"/>
		</contour>
		<contour>
			<point x="560" y="34" type="curve" smooth="yes"/>
			<point x="320" y="34"/>
			<point x="120" y="240"/>
			<point x="120" y="500" type="curve" smooth="yes"/>
			<point x="120" y="752"/>
			<point x="310" y="968"/>
			<point x="560" y="968" type="curve" smooth="yes"/>
			<point x="808" y="968"/>
			<point x="1000" y="752"/>
			<point x="1000" y="500" type="curve" smooth="yes"/>
			<point x="1000" y="250"/>
			<point x="808" y="34"/>
		</contour>
	</outline>
</glyph>
<glyph name="v" format="2">
	<advance width="924"/>
	<unicode hex="0076"/>
	<outline>
		<contour>
			<point x="498" y="0" type="line"/>
			<point x="864" y="1004" type="line"/>
			<point x="800" y="1004" type="line"/>
			<point x="462" y="74" type="line"/>
			<point x="124" y="1004" type="line"/>
			<point x="60" y="1004" type="line"/>
			<point x="426" y="0" type="line"/>
		</contour>
	</outline>
</glyph>
<glyph name="y" format="2">
	<advance width="946"/>
	<unicode hex="0079"/>
	<outline>
		<contour>
			<point x="804" y="1000" type="line"/>
			<point x="468" y="84" type="line"/>
			<point x="146" y="1000" type="line"/>
			<point x="80" y="1000" type="line"/>
			<point x="438" y="2" type="line"/>
			<point x="256" y="-500" type="line"/>
			<point x="320" y="-500" type="line"/>
			<point x="866" y="1000" type="line"/>
		</contour>
	</outline>
</glyph>
<glyph name="exclamdown" format="2">
	<advance width="250"/>
	<unicode hex="00A1"/>
	<outline>
		<contour>
			<point x="124" y="1026" type="curve"/>
			<point x="100" y="1026"/>
			<point x="80" y="1006"/>
			<point x="80" y="980" type="curve"/>
			<point x="80" y="956"/>
			<point x="100" y="936"/>
			<point x="124" y="936" type="curve"/>
			<point x="150" y="936"/>
			<point x="170" y="956"/>
			<point x="170" y="980" type="curve"/>
			<point x="170" y="1006"/>
			<point x="150" y="1026"/>
		</contour>
		<contour>
			<point x="154" y="580" type="line"/>
			<point x="94" y="580" type="line"/>
			<point x="94" y="-400" type="line"/>
			<point x="154" y="-400" type="line"/>
		</contour>
	</outline>
</glyph>
<glyph name="currency" format="2">
	<advance width="950"/>
	<unicode hex="00A4"/>
	<outline>
		<contour>
			<point x="122" y="304" type="line"/>
			<point x="242" y="426" type="line" smooth="yes"/>
			<point x="378" y="310"/>
			<point x="572" y="308"/>
			<point x="708" y="424" type="curve" smooth="yes"/>
			<point x="828" y="304" type="line"/>
			<point x="870" y="346" type="line"/>
			<point x="752" y="466" type="line" smooth="yes"/>
			<point x="864" y="600"/>
			<point x="864" y="798"/>
			<point x="750" y="932" type="curve" smooth="yes"/>
			<point x="870" y="1054" type="line"/>
			<point x="828" y="1096" type="line"/>
			<point x="706" y="974" type="line" smooth="yes"/>
			<point x="576" y="1084"/>
			<point x="376" y="1082"/>
			<point x="246" y="972" type="curve" smooth="yes"/>
			<point x="122" y="1096" type="line"/>
			<point x="80" y="1054" type="line"/>
			<point x="202" y="930" type="line" smooth="yes"/>
			<point x="90" y="796"/>
			<point x="90" y="602"/>
			<point x="200" y="468" type="curve" smooth="yes"/>
			<point x="80" y="346" type="line"/>
		</contour>
		<contour>
			<point x="476" y="398" type="curve"/>
			<point x="318" y="398"/>
			<point x="178" y="528"/>
			<point x="178" y="698" type="curve"/>
			<point x="178" y="864"/>
			<point x="310" y="996"/>
			<point x="476" y="996" type="curve"/>
			<point x="644" y="996"/>
			<point x="776" y="864"/>
			<point x="776" y="698" type="curve"/>
			<point x="776" y="532"/>
			<point x="640" y="398"/>
		</contour>
	</outline>
</glyph>
<glyph name="brokenbar" format="2">
	<advance width="300"/>
	<unicode hex="00A6"/>
	<outline>
		<contour>
			<point x="120" y="448" type="line"/>
			<point x="120" y="-302" type="line"/>
			<point x="180" y="-302" type="line"/>
			<point x="180" y="448" type="line"/>
		</contour>
		<contour>
			<point x="120" y="1400" type="line"/>
			<point x="120" y="650" type="line"/>
			<point x="180" y="650" type="line"/>
			<point x="180" y="1400" type="line"/>
		</contour>
	</outline>
</glyph>
<glyph name="registered" format="2">
	<advance width="896"/>
	<unicode hex="00AE"/>
	<outline>
		<contour>
			<point x="448" y="512" type="curve" smooth="yes"/>
			<point x="664" y="514"/>
			<point x="836" y="692"/>
			<point x="836" y="900" type="curve" smooth="yes"/>
			<point x="836" y="1104"/>
			<point x="668" y="1288"/>
			<point x="448" y="1288" type="curve" smooth="yes"/>
			<point x="232" y="1288"/>
			<point x="60" y="1110"/>
			<point x="60" y="900" type="curve" smooth="yes"/>
			<point x="60" y="692"/>
			<point x="230" y="514"/>
		</contour>
		<contour>
			<point x="448" y="572" type="curve" smooth="yes"/>
			<point x="268" y="572"/>
			<point x="120" y="720"/>
			<point x="120" y="900" type="curve" smooth="yes"/>
			<point x="120" y="1080"/>
			<point x="268" y="1228"/>
			<point x="448" y="1228" type="curve" smooth="yes"/>
			<point x="628" y="1228"/>
			<point x="776" y="1080"/>
			<point x="776" y="900" type="curve" smooth="yes"/>
			<point x="776" y="720"/>
			<point x="628" y="572"/>
		</contour>
		<contour>
			<point x="338" y="714" type="line"/>
			<point x="398" y="714" type="line"/>
			<point x="398" y="876" type="line"/>
			<point x="430" y="876" type="line"/>
			<point x="524" y="714" type="line"/>
			<point x="594" y="714" type="line"/>
			<point x="498" y="878" type="line"/>
			<point x="546" y="888"/>
			<point x="580" y="932"/>
			<point x="580" y="984" type="curve" smooth="yes"/>
			<point x="580" y="1046"/>
			<point x="534" y="1094"/>
			<point x="476" y="1094" type="curve" smooth="yes"/>
			<point x="338" y="1094" type="line"/>
		</contour>
		<contour>
			<point x="398" y="936" type="line"/>
			<point x="398" y="1034" type="line"/>
			<point x="476" y="1034" type="line" smooth="yes"/>
			<point x="500" y="1034"/>
			<point x="520" y="1012"/>
			<point x="520" y="984" type="curve" smooth="yes"/>
			<point x="520" y="958"/>
			<point x="500" y="936"/>
			<point x="476" y="936" type="curve" smooth="yes"/>
		</contour>
	</outline>
</glyph>
<glyph name="degree" format="2">
	<advance width="544"/>
	<unicode hex="00B0"/>
	<outline>
		<contour>
			<point x="272" y="888" type="curve" smooth="yes"/>
			<point x="378" y="888"/>
			<point x="464" y="974"/>
			<point x="464" y="1080" type="curve" smooth="yes"/>
			<point x="464" y="1186"/>
			<point x="378" y="1272"/>
			<point x="272" y="1272" type="curve" smooth="yes"/>
			<point x="166" y="1272"/>
			<point x="80" y="1186"/>
			<point x="80" y="1080" type="curve" smooth="yes"/>
			<point x="80" y="974"/>
			<point x="166" y="888"/>
		</contour>
		<contour>
			<point x="272" y="948" type="curve" smooth="yes"/>
			<point x="198" y="948"/>
			<point x="140" y="1006"/>
			<point x="140" y="1080" type="curve" smooth="yes"/>
			<point x="140" y="1154"/>
			<point x="198" y="1212"/>
			<point x="272" y="1212" type="curve" smooth="yes"/>
			<point x="346" y="1212"/>
			<point x="404" y="1154"/>
			<point x="404" y="1080" type="curve" smooth="yes"/>
			<point x="404" y="1006"/>
			<point x="346" y="948"/>
		</contour>
	</outline>
</glyph>
<glyph name="uni00B2" format="2">
	<advance width="670"/>
	<unicode hex="00B2"/>
	<outline>
		<contour>
			<point x="96" y="818" type="line"/>
			<point x="526" y="818" type="line"/>
			<point x="526" y="890" type="line"/>
			<point x="218" y="890" type="line"/>
			<point x="341" y="974"/>
			<point x="526" y="1144"/>
			<point x="526" y="1264" type="curve" smooth="yes"/>
			<point x="526" y="1382"/>
			<point x="430" y="1468"/>
			<point x="312" y="1468" type="curve" smooth="yes"/>
			<point x="192" y="1468"/>
			<point x="96" y="1382"/>
			<point x="96" y="1264" type="curve"/>
			<point x="168" y="1264" type="line"/>
			<point x="168" y="1343"/>
			<point x="233" y="1396"/>
			<point x="312" y="1396" type="curve" smooth="yes"/>
			<point x="391" y="1396"/>
			<point x="454" y="1343"/>
			<point x="454" y="1264" type="curve" smooth="yes"/>
			<point x="454" y="1149"/>
			<point x="194" y="957"/>
			<point x="96" y="892" type="curve"/>
		</contour>
	</outline>
</glyph>
<glyph name="uni00B3" format="2">
	<advance width="540"/>
	<unicode hex="00B3"/>
	<outline>
		<contour>
			<point x="271" y="798" type="curve"/>
			<point x="379" y="798"/>
			<point x="468" y="875"/>
			<point x="468" y="986" type="curve"/>
			<point x="468" y="1067"/>
			<point x="437" y="1106"/>
			<point x="377" y="1151" type="curve"/>
			<point x="415" y="1170"/>
			<point x="449" y="1233"/>
			<point x="449" y="1295" type="curve"/>
			<point x="449" y="1396"/>
			<point x="367" y="1466"/>
			<point x="266" y="1466" type="curve"/>
			<point x="166" y="1466"/>
			<point x="84" y="1396"/>
			<point x="84" y="1295" type="curve"/>
			<point x="156" y="1295" type="line"/>
			<point x="156" y="1355"/>
			<point x="206" y="1394"/>
			<point x="266" y="1394" type="curve"/>
			<point x="326" y="1394"/>
			<point x="377" y="1355"/>
			<point x="377" y="1295" type="curve"/>
			<point x="377" y="1223"/>
			<point x="324" y="1185"/>
			<point x="233" y="1185" type="curve"/>
			<point x="233" y="1113" type="line"/>
			<point x="336" y="1113"/>
			<point x="396" y="1065"/>
			<point x="396" y="986" type="curve"/>
			<point x="396" y="916"/>
			<point x="341" y="870"/>
			<point x="271" y="870" type="curve"/>
			<point x="199" y="870"/>
			<point x="144" y="916"/>
			<point x="144" y="986" type="curve"/>
			<point x="72" y="986" type="line"/>
			<point x="72" y="875"/>
			<point x="161" y="798"/>
		</contour>
	</outline>
</glyph>
<glyph name="paragraph" format="2">
	<advance width="702"/>
	<unicode hex="00B6"/>
	<outline>
		<contour>
			<point x="420" y="-302" type="line"/>
			<point x="480" y="-302" type="line"/>
			<point x="480" y="1400" type="line"/>
			<point x="420" y="1400" type="line" smooth="yes"/>
			<point x="232" y="1400"/>
			<point x="80" y="1246"/>
			<point x="80" y="1058" type="curve" smooth="yes"/>
			<point x="80" y="870"/>
			<point x="232" y="718"/>
			<point x="420" y="718" type="curve"/>
		</contour>
		<contour>
			<point x="562" y="-302" type="line"/>
			<point x="622" y="-302" type="line"/>
			<point x="622" y="1400" type="line"/>
			<point x="562" y="1400" type="line"/>
		</contour>
	</outline>
</glyph>
<glyph name="periodcentered" format="2">
	<advance width="250"/>
	<unicode hex="00B7"/>
	<outline>
		<contour>
			<point x="124" y="555" type="curve" smooth="yes"/>
			<point x="150" y="555"/>
			<point x="170" y="575"/>
			<point x="170" y="601" type="curve" smooth="yes"/>
			<point x="170" y="625"/>
			<point x="150" y="645"/>
			<point x="124" y="645" type="curve" smooth="yes"/>
			<point x="100" y="645"/>
			<point x="80" y="625"/>
			<point x="80" y="601" type="curve" smooth="yes"/>
			<point x="80" y="575"/>
			<point x="100" y="555"/>
		</contour>
	</outline>
</glyph>
<glyph name="multiply" format="2">
	<advance width="910"/>
	<unicode hex="00D7"/>
	<outline>
		<contour>
			<point x="122" y="226" type="line"/>
			<point x="454" y="558" type="line"/>
			<point x="786" y="226" type="line"/>
			<point x="830" y="268" type="line"/>
			<point x="496" y="600" type="line"/>
			<point x="830" y="932" type="line"/>
			<point x="786" y="974" type="line"/>
			<point x="454" y="642" type="line"/>
			<point x="122" y="974" type="line"/>
			<point x="80" y="932" type="line"/>
			<point x="412" y="600" type="line"/>
			<point x="80" y="268" type="line"/>
		</contour>
	</outline>
</glyph>
<glyph name="iacute" format="2">
	<advance width="300"/>
	<unicode hex="00ED"/>
	<outline>
		<contour>
			<point x="120" y="1000" type="line"/>
			<point x="120" y="0" type="line"/>
			<point x="180" y="0" type="line"/>
			<point x="180" y="1000" type="line"/>
		</contour>
		<component base="acutecomb" xOffset="-340"/>
	</outline>
</glyph>
<glyph name="idieresis" format="2">
	<advance width="466"/>
	<unicode hex="00EF"/>
	<outline>
		<contour>
			<point x="202" y="1000" type="line"/>
			<point x="202" y="0" type="line"/>
			<point x="262" y="0" type="line"/>
			<point x="262" y="1000" type="line"/>
		</contour>
		<component base="uni0308" xOffset="-340"/>
	</outline>
</glyph>
<glyph name="eth" format="2">
	<advance width="1124"/>
	<unicode hex="00F0"/>
	<outline>
		<contour>
			<point x="428" y="1070" type="line"/>
			<point x="866" y="1500" type="line"/>
			<point x="824" y="1542" type="line"/>
			<point x="384" y="1114" type="line"/>
		</contour>
		<component base="partialdiff"/>
	</outline>
</glyph>
<glyph name="dotlessi" format="2">
	<advance width="300"/>
	<unicode hex="0131"/>
	<outline>
		<contour>
			<point x="120" y="1000" type="line"/>
			<point x="120" y="0" type="line"/>
			<point x="180" y="0" type="line"/>
			<point x="180" y="1000" type="line"/>
		</contour>
	</outline>
</glyph>
<glyph name="oe" format="2">
	<advance width="2058"/>
	<unicode hex="0153"/>
	<outline>
		<contour>
			<point x="560" y="-26" type="curve" smooth="yes"/>
			<point x="776" y="-26"/>
			<point x="960" y="118"/>
			<point x="1030" y="320" type="curve"/>
			<point x="1100" y="118"/>
			<point x="1284" y="-26"/>
			<point x="1500" y="-26" type="curve" smooth="yes"/>
			<point x="1700" y="-26"/>
			<point x="1872" y="98"/>
			<point x="1952" y="276" type="curve"/>
			<point x="1892" y="290" type="line"/>
			<point x="1812" y="130"/>
			<point x="1670" y="34"/>
			<point x="1500" y="34" type="curve" smooth="yes"/>
			<point x="1270" y="34"/>
			<point x="1080" y="220"/>
			<point x="1060" y="470" type="curve"/>
			<point x="1998" y="470" type="line"/>
			<point x="1992" y="804"/>
			<point x="1786" y="1028"/>
			<point x="1500" y="1028" type="curve" smooth="yes"/>
			<point x="1284" y="1028"/>
			<point x="1100" y="884"/>
			<point x="1030" y="680" type="curve"/>
			<point x="960" y="884"/>
			<point x="776" y="1028"/>
			<point x="560" y="1028" type="curve" smooth="yes"/>
			<point x="284" y="1028"/>
			<point x="60" y="792"/>
			<point x="60" y="500" type="curve" smooth="yes"/>
			<point x="60" y="210"/>
			<point x="284" y="-26"/>
		</contour>
		<contour>
			<point x="560" y="34" type="curve" smooth="yes"/>
			<point x="320" y="34"/>
			<point x="120" y="240"/>
			<point x="120" y="500" type="curve" smooth="yes"/>
			<point x="120" y="752"/>
			<point x="310" y="968"/>
			<point x="560" y="968" type="curve" smooth="yes"/>
			<point x="808" y="968"/>
			<point x="1000" y="752"/>
			<point x="1000" y="500" type="curve" smooth="yes"/>
			<point x="1000" y="250"/>
			<point x="808" y="34"/>
		</contour>
		<contour>
			<point x="1060" y="530" type="line"/>
			<point x="1076" y="772"/>
			<point x="1262" y="968"/>
			<point x="1500" y="968" type="curve" smooth="yes"/>
			<point x="1736" y="968"/>
			<point x="1930" y="764"/>
			<point x="1938" y="530" type="curve"/>
		</contour>
	</outline>
</glyph>
<glyph name="breve" format="2">
	<advance width="1144"/>
	<unicode hex="02D8"/>
	<outline>
		<contour>
			<point x="572" y="1128" type="curve" smooth="yes"/>
			<point x="748" y="1128"/>
			<point x="904" y="1272"/>
			<point x="904" y="1460" type="curve"/>
			<point x="844" y="1460" type="line"/>
			<point x="844" y="1310"/>
			<point x="720" y="1188"/>
			<point x="572" y="1188" type="curve" smooth="yes"/>
			<point x="430" y="1188"/>
			<point x="300" y="1302"/>
			<point x="300" y="1460" type="curve"/>
			<point x="240" y="1460" type="line"/>
			<point x="240" y="1278"/>
			<point x="390" y="1128"/>
		</contour>
	</outline>
</glyph>
<glyph name="uni0302" format="2">
	<advance width="1042"/>
	<unicode hex="0302"/>
	<outline>
		<contour>
			<point x="502" y="1400" type="line"/>
			<point x="400" y="1166" type="line"/>
			<point x="450" y="1166" type="line"/>
			<point x="522" y="1334" type="line"/>
			<point x="592" y="1166" type="line"/>
			<point x="642" y="1166" type="line"/>
			<point x="542" y="1400" type="line"/>
		</contour>
	</outline>
</glyph>
<glyph name="uni0307" format="2">
	<advance width="890"/>
	<unicode hex="0307"/>
	<outline>
		<contour>
			<point x="446" y="1230" type="curve" smooth="yes"/>
			<point x="470" y="1230"/>
			<point x="490" y="1248"/>
			<point x="490" y="1274" type="curve" smooth="yes"/>
			<point x="490" y="1300"/>
			<point x="470" y="1318"/>
			<point x="446" y="1318" type="curve" smooth="yes"/>
			<point x="420" y="1318"/>
			<point x="400" y="1300"/>
			<point x="400" y="1274" type="curve" smooth="yes"/>
			<point x="400" y="1248"/>
			<point x="420" y="1230"/>
		</contour>
	</outline>
</glyph>
<glyph name="uni0308" format="2">
	<advance width="1146"/>
	<unicode hex="0308"/>
	<outline>
		<contour>
			<point x="448" y="1230" type="curve" smooth="yes"/>
			<point x="472" y="1230"/>
			<point x="494" y="1248"/>
			<point x="494" y="1274" type="curve" smooth="yes"/>
			<point x="494" y="1298"/>
			<point x="472" y="1320"/>
			<point x="448" y="1320" type="curve" smooth="yes"/>
			<point x="422" y="1320"/>
			<point x="400" y="1298"/>
			<point x="400" y="1274" type="curve" smooth="yes"/>
			<point x="400" y="1248"/>
			<point x="422" y="1230"/>
		</contour>
		<contour>
			<point x="700" y="1230" type="curve" smooth="yes"/>
			<point x="724" y="1230"/>
			<point x="746" y="1248"/>
			<point x="746" y="1274" type="curve" smooth="yes"/>
			<point x="746" y="1298"/>
			<point x="724" y="1320"/>
			<point x="700" y="1320" type="curve" smooth="yes"/>
			<point x="674" y="1320"/>
			<point x="652" y="1298"/>
			<point x="652" y="1274" type="curve" smooth="yes"/>
			<point x="652" y="1248"/>
			<point x="674" y="1230"/>
		</contour>
	</outline>
</glyph>
<glyph name="uni030A" format="2">
	<advance width="1076"/>
	<unicode hex="030A"/>
	<outline>
		<contour>
			<point x="538" y="1142" type="curve"/>
			<point x="614" y="1142"/>
			<point x="676" y="1204"/>
			<point x="676" y="1282" type="curve"/>
			<point x="676" y="1356"/>
			<point x="614" y="1420"/>
			<point x="538" y="1420" type="curve"/>
			<point x="462" y="1420"/>
			<point x="400" y="1356"/>
			<point x="400" y="1282" type="curve"/>
			<point x="400" y="1206"/>
			<point x="462" y="1142"/>
		</contour>
		<contour>
			<point x="538" y="1190" type="curve"/>
			<point x="488" y="1190"/>
			<point x="448" y="1230"/>
			<point x="448" y="1282" type="curve"/>
			<point x="448" y="1330"/>
			<point x="488" y="1370"/>
			<point x="538" y="1370" type="curve"/>
			<point x="588" y="1370"/>
			<point x="628" y="1330"/>
			<point x="628" y="1282" type="curve"/>
			<point x="628" y="1230"/>
			<point x="588" y="1190"/>
		</contour>
	</outline>
</glyph>
<glyph name="uni0327" format="2">
	<advance width="1174"/>
	<unicode hex="0327"/>
	<outline>
		<contour>
			<point x="400" y="-306" type="line"/>
			<point x="430" y="-306" type="line" smooth="yes"/>
			<point x="620" y="-306"/>
			<point x="774" y="-152"/>
			<point x="774" y="38" type="curve" smooth="yes"/>
			<point x="774" y="68" type="line"/>
			<point x="714" y="68" type="line"/>
			<point x="714" y="38" type="line" smooth="yes"/>
			<point x="714" y="-118"/>
			<point x="586" y="-246"/>
			<point x="430" y="-246" type="curve" smooth="yes"/>
			<point x="400" y="-246" type="line"/>
		</contour>
	</outline>
</glyph>
<glyph name="uni1E9E" format="2">
	<advance width="1070"/>
	<unicode hex="1E9E"/>
	<outline>
		<contour>
			<point x="120" y="0" type="line"/>
			<point x="180" y="0" type="line"/>
			<point x="180" y="994" type="line" smooth="yes"/>
			<point x="180" y="1184"/>
			<point x="332" y="1338"/>
			<point x="522" y="1338" type="curve" smooth="yes"/>
			<point x="672" y="1338"/>
			<point x="804" y="1282"/>
			<point x="806" y="1152" type="curve" smooth="yes"/>
			<point x="808" y="1032"/>
			<point x="510" y="754"/>
			<point x="518" y="694" type="curve" smooth="yes"/>
			<point x="522" y="662" type="line"/>
			<point x="588" y="662" type="line" smooth="yes"/>
			<point x="754" y="662"/>
			<point x="950" y="568"/>
			<point x="950" y="364" type="curve" smooth="yes"/>
			<point x="950" y="156"/>
			<point x="756" y="60"/>
			<point x="590" y="60" type="curve" smooth="yes"/>
			<point x="496" y="60" type="line"/>
			<point x="516" y="0" type="line"/>
			<point x="590" y="0" type="line" smooth="yes"/>
			<point x="788" y="0"/>
			<point x="1010" y="122"/>
			<point x="1010" y="362" type="curve" smooth="yes"/>
			<point x="1010" y="588"/>
			<point x="802" y="740"/>
			<point x="602" y="720" type="curve"/>
			<point x="800" y="992"/>
			<point x="876" y="1070"/>
			<point x="876" y="1152" type="curve" smooth="yes"/>
			<point x="876" y="1320"/>
			<point x="716" y="1398"/>
			<point x="526" y="1398" type="curve" smooth="yes"/>
			<point x="302" y="1398"/>
			<point x="120" y="1216"/>
			<point x="120" y="992" type="curve" smooth="yes"/>
		</contour>
	</outline>
</glyph>
<glyph name="perthousand" format="2">
	<advance width="1518"/>
	<unicode hex="2030"/>
	<outline>
		<contour>
			<point x="114" y="0" type="line"/>
			<point x="184" y="0" type="line"/>
			<point x="992" y="1400" type="line"/>
			<point x="922" y="1400" type="line"/>
		</contour>
		<contour>
			<point x="272" y="900" type="curve"/>
			<point x="378" y="900"/>
			<point x="464" y="986"/>
			<point x="464" y="1092" type="curve"/>
			<point x="464" y="1198"/>
			<point x="378" y="1286"/>
			<point x="272" y="1286" type="curve"/>
			<point x="166" y="1286"/>
			<point x="80" y="1198"/>
			<point x="80" y="1092" type="curve"/>
			<point x="80" y="986"/>
			<point x="166" y="900"/>
		</contour>
		<contour>
			<point x="272" y="960" type="curve"/>
			<point x="198" y="960"/>
			<point x="140" y="1020"/>
			<point x="140" y="1092" type="curve"/>
			<point x="140" y="1166"/>
			<point x="198" y="1226"/>
			<point x="272" y="1226" type="curve"/>
			<point x="346" y="1226"/>
			<point x="404" y="1166"/>
			<point x="404" y="1092" type="curve"/>
			<point x="404" y="1020"/>
			<point x="346" y="960"/>
		</contour>
		<contour>
			<point x="776" y="114" type="curve"/>
			<point x="882" y="114"/>
			<point x="968" y="202"/>
			<point x="968" y="308" type="curve"/>
			<point x="968" y="414"/>
			<point x="882" y="500"/>
			<point x="776" y="500" type="curve"/>
			<point x="670" y="500"/>
			<point x="582" y="414"/>
			<point x="582" y="308" type="curve"/>
			<point x="582" y="202"/>
			<point x="670" y="114"/>
		</contour>
		<contour>
			<point x="776" y="174" type="curve"/>
			<point x="702" y="174"/>
			<point x="642" y="234"/>
			<point x="642" y="308" type="curve"/>
			<point x="642" y="380"/>
			<point x="702" y="440"/>
			<point x="776" y="440" type="curve"/>
			<point x="848" y="440"/>
			<point x="908" y="380"/>
			<point x="908" y="308" type="curve"/>
			<point x="908" y="234"/>
			<point x="848" y="174"/>
		</contour>
		<contour>
			<point x="1246" y="114" type="curve"/>
			<point x="1352" y="114"/>
			<point x="1438" y="202"/>
			<point x="1438" y="308" type="curve"/>
			<point x="1438" y="414"/>
			<point x="1352" y="500"/>
			<point x="1246" y="500" type="curve"/>
			<point x="1140" y="500"/>
			<point x="1052" y="414"/>
			<point x="1052" y="308" type="curve"/>
			<point x="1052" y="202"/>
			<point x="1140" y="114"/>
		</contour>
		<contour>
			<point x="1246" y="174" type="curve"/>
			<point x="1172" y="174"/>
			<point x="1112" y="234"/>
			<point x="1112" y="308" type="curve"/>
			<point x="1112" y="380"/>
			<point x="1172" y="440"/>
			<point x="1246" y="440" type="curve"/>
			<point x="1318" y="440"/>
			<point x="1378" y="380"/>
			<point x="1378" y="308" type="curve"/>
			<point x="1378" y="234"/>
			<point x="1318" y="174"/>
		</contour>
	</outline>
</glyph>
<glyph name="fraction" format="2">
	<advance width="878"/>
	<unicode hex="2044"/>
	<unicode hex="2215"/>
	<outline>
		<contour>
			<point x="0" y="0" type="line"/>
			<point x="70" y="0" type="line"/>
			<point x="878" y="1400" type="line"/>
			<point x="808" y="1400" type="line"/>
		</contour>
	</outline>
</glyph>
<glyph name="uni2070" format="2">
	<advance width="648"/>
	<unicode hex="2070"/>
	<outline>
		<contour>
			<point x="324" y="798" type="curve" smooth="yes"/>
			<point x="463" y="798"/>
			<point x="576" y="940"/>
			<point x="576" y="1132" type="curve" smooth="yes"/>
			<point x="576" y="1324"/>
			<point x="463" y="1468"/>
			<point x="324" y="1468" type="curve" smooth="yes"/>
			<point x="185" y="1468"/>
			<point x="72" y="1324"/>
			<point x="72" y="1132" type="curve" smooth="yes"/>
			<point x="72" y="940"/>
			<point x="185" y="798"/>
		</contour>
		<contour>
			<point x="324" y="870" type="curve" smooth="yes"/>
			<point x="218" y="870"/>
			<point x="144" y="998"/>
			<point x="144" y="1132" type="curve" smooth="yes"/>
			<point x="144" y="1262"/>
			<point x="214" y="1396"/>
			<point x="324" y="1396" type="curve" smooth="yes"/>
			<point x="430" y="1396"/>
			<point x="504" y="1269"/>
			<point x="504" y="1132" type="curve" smooth="yes"/>
			<point x="504" y="1005"/>
			<point x="434" y="870"/>
		</contour>
	</outline>
</glyph>
<glyph name="uni2080" format="2">
	<advance width="648"/>
	<unicode hex="2080"/>
	<outline>
		<contour>
			<point x="324" y="-31" type="curve"/>
			<point x="463" y="-31"/>
			<point x="576" y="109"/>
			<point x="576" y="301" type="curve"/>
			<point x="576" y="493"/>
			<point x="463" y="636"/>
			<point x="324" y="636" type="curve"/>
			<point x="185" y="636"/>
			<point x="72" y="493"/>
			<point x="72" y="301" type="curve"/>
			<point x="72" y="109"/>
			<point x="185" y="-31"/>
		</contour>
		<contour>
			<point x="324" y="41" type="curve"/>
			<point x="218" y="41"/>
			<point x="144" y="167"/>
			<point x="144" y="301" type="curve"/>
			<point x="144" y="431"/>
			<point x="214" y="564"/>
			<point x="324" y="564" type="curve"/>
			<point x="430" y="564"/>
			<point x="504" y="438"/>
			<point x="504" y="301" type="curve"/>
			<point x="504" y="174"/>
			<point x="434" y="41"/>
		</contour>
	</outline>
</glyph>
<glyph name="uni2081" format="2">
	<advance width="401"/>
	<unicode hex="2081"/>
	<outline>
		<contour>
			<point x="185" y="0" type="line"/>
			<point x="257" y="0" type="line"/>
			<point x="257" y="631" type="line"/>
			<point x="106" y="631" type="line"/>
			<point x="96" y="559" type="line"/>
			<point x="185" y="559" type="line"/>
		</contour>
	</outline>
</glyph>
<glyph name="uni2083" format="2">
	<advance width="540"/>
	<unicode hex="2083"/>
	<outline>
		<contour>
			<point x="271" y="-31" type="curve" smooth="yes"/>
			<point x="379" y="-31"/>
			<point x="468" y="46"/>
			<point x="468" y="156" type="curve" smooth="yes"/>
			<point x="468" y="238"/>
			<point x="437" y="276"/>
			<point x="377" y="322" type="curve"/>
			<point x="415" y="341"/>
			<point x="449" y="403"/>
			<point x="449" y="466" type="curve" smooth="yes"/>
			<point x="449" y="566"/>
			<point x="367" y="636"/>
			<point x="266" y="636" type="curve" smooth="yes"/>
			<point x="166" y="636"/>
			<point x="84" y="566"/>
			<point x="84" y="466" type="curve"/>
			<point x="156" y="466" type="line"/>
			<point x="156" y="526"/>
			<point x="206" y="564"/>
			<point x="266" y="564" type="curve" smooth="yes"/>
			<point x="326" y="564"/>
			<point x="377" y="526"/>
			<point x="377" y="466" type="curve" smooth="yes"/>
			<point x="377" y="394"/>
			<point x="324" y="355"/>
			<point x="233" y="355" type="curve"/>
			<point x="233" y="283" type="line"/>
			<point x="336" y="283"/>
			<point x="396" y="235"/>
			<point x="396" y="156" type="curve" smooth="yes"/>
			<point x="396" y="86"/>
			<point x="341" y="41"/>
			<point x="271" y="41" type="curve" smooth="yes"/>
			<point x="199" y="41"/>
			<point x="144" y="86"/>
			<point x="144" y="156" type="curve"/>
			<point x="72" y="156" type="line"/>
			<point x="72" y="46"/>
			<point x="161" y="-31"/>
		</contour>
	</outline>
</glyph>
<glyph name="uni2084" format="2">
	<advance width="674"/>
	<unicode hex="2084"/>
	<outline>
		<contour>
			<point x="379" y="0" type="line"/>
			<point x="451" y="0" type="line"/>
			<point x="451" y="139" type="line"/>
			<point x="530" y="139" type="line"/>
			<point x="530" y="211" type="line"/>
			<point x="451" y="211" type="line"/>
			<point x="451" y="631" type="line"/>
			<point x="353" y="631" type="line"/>
			<point x="96" y="226" type="line"/>
			<point x="96" y="139" type="line"/>
			<point x="379" y="139" type="line"/>
		</contour>
		<contour>
			<point x="173" y="211" type="line"/>
			<point x="379" y="535" type="line"/>
			<point x="379" y="211" type="line"/>
		</contour>
	</outline>
</glyph>
<glyph name="uni2087" format="2">
	<advance width="612"/>
	<unicode hex="2087"/>
	<outline>
		<contour>
			<point x="134" y="0" type="line"/>
			<point x="218" y="0" type="line"/>
			<point x="540" y="559" type="line"/>
			<point x="540" y="631" type="line"/>
			<point x="120" y="631" type="line"/>
			<point x="120" y="559" type="line"/>
			<point x="456" y="559" type="line"/>
		</contour>
	</outline>
</glyph>
<glyph name="uni2088" format="2">
	<advance width="593"/>
	<unicode hex="2088"/>
	<outline>
		<contour>
			<point x="295" y="-31" type="curve" smooth="yes"/>
			<point x="406" y="-31"/>
			<point x="497" y="46"/>
			<point x="497" y="156" type="curve" smooth="yes"/>
			<point x="497" y="226"/>
			<point x="461" y="286"/>
			<point x="408" y="322" type="curve"/>
			<point x="451" y="355"/>
			<point x="480" y="408"/>
			<point x="480" y="466" type="curve" smooth="yes"/>
			<point x="480" y="569"/>
			<point x="398" y="638"/>
			<point x="295" y="638" type="curve" smooth="yes"/>
			<point x="194" y="638"/>
			<point x="113" y="569"/>
			<point x="113" y="466" type="curve" smooth="yes"/>
			<point x="113" y="408"/>
			<point x="142" y="355"/>
			<point x="185" y="322" type="curve"/>
			<point x="132" y="286"/>
			<point x="96" y="226"/>
			<point x="96" y="156" type="curve" smooth="yes"/>
			<point x="96" y="46"/>
			<point x="187" y="-31"/>
		</contour>
		<contour>
			<point x="295" y="41" type="curve" smooth="yes"/>
			<point x="226" y="41"/>
			<point x="168" y="86"/>
			<point x="168" y="156" type="curve" smooth="yes"/>
			<point x="168" y="226"/>
			<point x="226" y="283"/>
			<point x="295" y="283" type="curve" smooth="yes"/>
			<point x="367" y="283"/>
			<point x="425" y="226"/>
			<point x="425" y="156" type="curve" smooth="yes"/>
			<point x="425" y="86"/>
			<point x="367" y="41"/>
		</contour>
		<contour>
			<point x="295" y="355" type="curve" smooth="yes"/>
			<point x="235" y="355"/>
			<point x="185" y="406"/>
			<point x="185" y="466" type="curve" smooth="yes"/>
			<point x="185" y="528"/>
			<point x="235" y="566"/>
			<point x="295" y="566" type="curve" smooth="yes"/>
			<point x="358" y="566"/>
			<point x="408" y="528"/>
			<point x="408" y="466" type="curve" smooth="yes"/>
			<point x="408" y="406"/>
			<point x="358" y="355"/>
		</contour>
	</outline>
</glyph>
<glyph name="uni2089" format="2">
	<advance width="660"/>
	<unicode hex="2089"/>
	<outline>
		<contour>
			<point x="243" y="0" type="line"/>
			<point x="325" y="0" type="line"/>
			<point x="507" y="314" type="line"/>
			<point x="599" y="468"/>
			<point x="483" y="650"/>
			<point x="306" y="650" type="curve" smooth="yes"/>
			<point x="227" y="650"/>
			<point x="147" y="622"/>
			<point x="104" y="545" type="curve" smooth="yes"/>
			<point x="1" y="370"/>
			<point x="162" y="154"/>
			<point x="361" y="204" type="curve"/>
		</contour>
		<contour>
			<point x="306" y="269" type="curve" smooth="yes"/>
			<point x="241" y="269"/>
			<point x="171" y="312"/>
			<point x="150" y="389" type="curve" smooth="yes"/>
			<point x="126" y="492"/>
			<point x="203" y="578"/>
			<point x="306" y="578" type="curve" smooth="yes"/>
			<point x="371" y="578"/>
			<point x="440" y="547"/>
			<point x="462" y="470" type="curve" smooth="yes"/>
			<point x="486" y="365"/>
			<point x="409" y="269"/>
		</contour>
	</outline>
</glyph>
<glyph name="arrowup" format="2">
	<advance width="1094"/>
	<unicode hex="2191"/>
	<outline>
		<contour>
			<point x="518" y="158" type="line"/>
			<point x="578" y="158" type="line"/>
			<point x="578" y="1228" type="line"/>
			<point x="972" y="832" type="line"/>
			<point x="1014" y="876" type="line"/>
			<point x="548" y="1342" type="line"/>
			<point x="80" y="876" type="line"/>
			<point x="124" y="832" type="line"/>
			<point x="518" y="1228" type="line"/>
		</contour>
	</outline>
</glyph>
<glyph name="arrowupdn" format="2">
	<advance width="1094"/>
	<unicode hex="2195"/>
	<outline>
		<contour>
			<point x="546" y="48" type="line"/>
			<point x="1014" y="516" type="line"/>
			<point x="970" y="560" type="line"/>
			<point x="576" y="162" type="line"/>
			<point x="576" y="1338" type="line"/>
			<point x="970" y="942" type="line"/>
			<point x="1014" y="986" type="line"/>
			<point x="546" y="1452" type="line"/>
			<point x="80" y="986" type="line"/>
			<point x="122" y="942" type="line"/>
			<point x="516" y="1338" type="line"/>
			<point x="516" y="162" type="line"/>
			<point x="122" y="560" type="line"/>
			<point x="80" y="516" type="line"/>
		</contour>
	</outline>
</glyph>
<glyph name="uni2197" format="2">
	<advance width="1016"/>
	<unicode hex="2197"/>
	<outline>
		<contour>
			<point x="122" y="322" type="line"/>
			<point x="876" y="1076" type="line"/>
			<point x="876" y="518" type="line"/>
			<point x="936" y="518" type="line"/>
			<point x="936" y="1178" type="line"/>
			<point x="276" y="1178" type="line"/>
			<point x="276" y="1118" type="line"/>
			<point x="834" y="1118" type="line"/>
			<point x="80" y="364" type="line"/>
		</contour>
	</outline>
</glyph>
<glyph name="uni2199" format="2">
	<advance width="1016"/>
	<unicode hex="2199"/>
	<outline>
		<contour>
			<point x="80" y="322" type="line"/>
			<point x="740" y="322" type="line"/>
			<point x="740" y="382" type="line"/>
			<point x="182" y="382" type="line"/>
			<point x="936" y="1136" type="line"/>
			<point x="894" y="1178" type="line"/>
			<point x="140" y="424" type="line"/>
			<point x="140" y="982" type="line"/>
			<point x="80" y="982" type="line"/>
		</contour>
	</outline>
</glyph>
<glyph name="partialdiff" format="2">
	<advance width="1164"/>
	<unicode hex="2202"/>
	<outline>
		<contour>
			<point x="582" y="-26" type="curve"/>
			<point x="882" y="-26"/>
			<point x="1084" y="198"/>
			<point x="1084" y="522" type="curve"/>
			<point x="1080" y="1052"/>
			<point x="760" y="1478"/>
			<point x="360" y="1478" type="curve"/>
			<point x="360" y="1418" type="line"/>
			<point x="692" y="1418"/>
			<point x="940" y="1094"/>
			<point x="1004" y="750" type="curve"/>
			<point x="914" y="888"/>
			<point x="760" y="978"/>
			<point x="582" y="978" type="curve"/>
			<point x="306" y="978"/>
			<point x="80" y="754"/>
			<point x="80" y="476" type="curve"/>
			<point x="80" y="198"/>
			<point x="306" y="-26"/>
		</contour>
		<contour>
			<point x="582" y="34" type="curve"/>
			<point x="336" y="34"/>
			<point x="140" y="236"/>
			<point x="140" y="476" type="curve"/>
			<point x="140" y="714"/>
			<point x="332" y="918"/>
			<point x="582" y="918" type="curve"/>
			<point x="830" y="918"/>
			<point x="1026" y="718"/>
			<point x="1026" y="476" type="curve"/>
			<point x="1026" y="240"/>
			<point x="834" y="34"/>
		</contour>
	</outline>
</glyph>
<glyph name="emptyset" format="2">
	<advance width="1160"/>
	<unicode hex="2205"/>
	<outline>
		<contour>
			<point x="302" y="-40" type="line"/>
			<point x="346" y="36" type="line"/>
			<point x="416" y="-2"/>
			<point x="496" y="-26"/>
			<point x="580" y="-26" type="curve" smooth="yes"/>
			<point x="856" y="-26"/>
			<point x="1080" y="210"/>
			<point x="1080" y="500" type="curve" smooth="yes"/>
			<point x="1080" y="682"/>
			<point x="996" y="840"/>
			<point x="866" y="936" type="curve"/>
			<point x="912" y="1014" type="line"/>
			<point x="860" y="1044" type="line"/>
			<point x="814" y="968" type="line"/>
			<point x="746" y="1006"/>
			<point x="666" y="1028"/>
			<point x="580" y="1028" type="curve" smooth="yes"/>
			<point x="304" y="1028"/>
			<point x="80" y="792"/>
			<point x="80" y="500" type="curve" smooth="yes"/>
			<point x="80" y="322"/>
			<point x="166" y="164"/>
			<point x="296" y="68" type="curve"/>
			<point x="250" y="-10" type="line"/>
		</contour>
		<contour>
			<point x="326" y="122" type="line"/>
			<point x="214" y="206"/>
			<point x="140" y="344"/>
			<point x="140" y="500" type="curve" smooth="yes"/>
			<point x="140" y="846"/>
			<point x="492" y="1080"/>
			<point x="784" y="916" type="curve"/>
		</contour>
		<contour>
			<point x="376" y="88" type="curve"/>
			<point x="836" y="882" type="line"/>
			<point x="948" y="796"/>
			<point x="1020" y="656"/>
			<point x="1020" y="500" type="curve" smooth="yes"/>
			<point x="1020" y="162"/>
			<point x="680" y="-80"/>
		</contour>
	</outline>
</glyph>
<glyph name="product" format="2">
	<advance width="1280"/>
	<unicode hex="220F"/>
	<outline>
		<contour>
			<point x="80" y="1400" type="line"/>
			<point x="80" y="1340" type="line"/>
			<point x="1200" y="1340" type="line"/>
			<point x="1200" y="1400" type="line"/>
		</contour>
		<contour>
			<point x="310" y="1364" type="line"/>
			<point x="310" y="0" type="line"/>
			<point x="370" y="0" type="line"/>
			<point x="370" y="1364" type="line"/>
		</contour>
		<contour>
			<point x="910" y="1364" type="line"/>
			<point x="910" y="0" type="line"/>
			<point x="970" y="0" type="line"/>
			<point x="970" y="1364" type="line"/>
		</contour>
	</outline>
</glyph>
<glyph name="summation" format="2">
	<advance width="980"/>
	<unicode hex="2211"/>
	<outline>
		<contour>
			<point x="80" y="0" type="line"/>
			<point x="920" y="0" type="line"/>
			<point x="920" y="60" type="line"/>
			<point x="148" y="60" type="line"/>
			<point x="474" y="698" type="line"/>
			<point x="148" y="1336" type="line"/>
			<point x="920" y="1336" type="line"/>
			<point x="920" y="1396" type="line"/>
			<point x="80" y="1396" type="line"/>
			<point x="80" y="1336" type="line"/>
			<point x="406" y="698" type="line"/>
			<point x="80" y="60" type="line"/>
		</contour>
	</outline>
</glyph>
<glyph name="radical" format="2">
	<advance width="1240"/>
	<unicode hex="221A"/>
	<outline>
		<contour>
			<point x="844" y="1400" type="line"/>
			<point x="368" y="96" type="line"/>
			<point x="144" y="708" type="line"/>
			<point x="80" y="708" type="line"/>
			<point x="338" y="0" type="line"/>
			<point x="396" y="0" type="line"/>
			<point x="886" y="1340" type="line"/>
			<point x="1160" y="1340" type="line"/>
			<point x="1160" y="1400" type="line"/>
		</contour>
	</outline>
</glyph>
<glyph name="infinity" format="2">
	<advance width="1434"/>
	<unicode hex="221E"/>
	<outline>
		<contour>
			<point x="346" y="340" type="curve"/>
			<point x="512" y="340"/>
			<point x="574" y="412"/>
			<point x="718" y="586" type="curve"/>
			<point x="868" y="402"/>
			<point x="928" y="340"/>
			<point x="1090" y="340" type="curve"/>
			<point x="1240" y="358"/>
			<point x="1354" y="482"/>
			<point x="1354" y="632" type="curve" smooth="yes"/>
			<point x="1354" y="788"/>
			<point x="1248" y="910"/>
			<point x="1062" y="924" type="curve"/>
			<point x="926" y="924"/>
			<point x="848" y="840"/>
			<point x="718" y="678" type="curve"/>
			<point x="578" y="848"/>
			<point x="514" y="924"/>
			<point x="346" y="924" type="curve"/>
			<point x="194" y="910"/>
			<point x="80" y="782"/>
			<point x="80" y="632" type="curve" smooth="yes"/>
			<point x="80" y="488"/>
			<point x="188" y="360"/>
		</contour>
		<contour>
			<point x="350" y="400" type="curve"/>
			<point x="236" y="414"/>
			<point x="140" y="506"/>
			<point x="140" y="632" type="curve" smooth="yes"/>
			<point x="140" y="752"/>
			<point x="230" y="850"/>
			<point x="350" y="864" type="curve"/>
			<point x="492" y="864"/>
			<point x="524" y="816"/>
			<point x="678" y="632" type="curve"/>
			<point x="530" y="454"/>
			<point x="494" y="400"/>
		</contour>
		<contour>
			<point x="1084" y="400" type="curve"/>
			<point x="954" y="400"/>
			<point x="928" y="428"/>
			<point x="756" y="632" type="curve"/>
			<point x="898" y="800"/>
			<point x="942" y="864"/>
			<point x="1062" y="864" type="curve"/>
			<point x="1208" y="850"/>
			<point x="1294" y="756"/>
			<point x="1294" y="632" type="curve" smooth="yes"/>
			<point x="1294" y="512"/>
			<point x="1202" y="414"/>
		</contour>
	</outline>
</glyph>
<glyph name="notequal" format="2">
	<advance width="1160"/>
	<unicode hex="2260"/>
	<outline>
		<contour>
			<point x="780" y="1182" type="line"/>
			<point x="718" y="1182" type="line"/>
			<point x="614" y="822" type="line"/>
			<point x="80" y="822" type="line"/>
			<point x="80" y="762" type="line"/>
			<point x="596" y="762" type="line"/>
			<point x="500" y="438" type="line"/>
			<point x="80" y="438" type="line"/>
			<point x="80" y="378" type="line"/>
			<point x="484" y="378" type="line"/>
			<point x="378" y="18" type="line"/>
			<point x="440" y="18" type="line"/>
			<point x="546" y="378" type="line"/>
			<point x="1080" y="378" type="line"/>
			<point x="1080" y="438" type="line"/>
			<point x="564" y="438" type="line"/>
			<point x="658" y="762" type="line"/>
			<point x="1080" y="762" type="line"/>
			<point x="1080" y="822" type="line"/>
			<point x="676" y="822" type="line"/>
		</contour>
	</outline>
</glyph>
<glyph name="lessequal" format="2">
	<advance width="1160"/>
	<unicode hex="2264"/>
	<outline>
		<contour>
			<point x="1080" y="348" type="line"/>
			<point x="1080" y="410" type="line"/>
			<point x="134" y="680" type="line"/>
			<point x="1080" y="948" type="line"/>
			<point x="1080" y="1012" type="line"/>
			<point x="80" y="726" type="line"/>
			<point x="80" y="632" type="line"/>
		</contour>
		<contour>
			<point x="80" y="0" type="line"/>
			<point x="1080" y="0" type="line"/>
			<point x="1080" y="60" type="line"/>
			<point x="80" y="60" type="line"/>
		</contour>
	</outline>
</glyph>
<glyph name="uniFFFD" format="2">
	<advance width="1630"/>
	<unicode hex="FFFD"/>
	<outline>
		<contour>
			<point x="816" y="-26" type="curve" smooth="yes"/>
			<point x="888" y="-26"/>
			<point x="960" y="2"/>
			<point x="1014" y="56" type="curve" smooth="yes"/>
			<point x="1428" y="470" type="line" smooth="yes"/>
			<point x="1484" y="526"/>
			<point x="1510" y="598"/>
			<point x="1510" y="670" type="curve" smooth="yes"/>
			<point x="1510" y="742"/>
			<point x="1484" y="812"/>
			<point x="1428" y="868" type="curve" smooth="yes"/>
			<point x="1014" y="1282" type="line" smooth="yes"/>
			<point x="958" y="1338"/>
			<point x="888" y="1364"/>
			<point x="816" y="1364" type="curve" smooth="yes"/>
			<point x="744" y="1364"/>
			<point x="672" y="1338"/>
			<point x="616" y="1282" type="curve" smooth="yes"/>
			<point x="202" y="868" type="line" smooth="yes"/>
			<point x="148" y="814"/>
			<point x="120" y="742"/>
			<point x="120" y="670" type="curve" smooth="yes"/>
			<point x="120" y="598"/>
			<point x="146" y="526"/>
			<point x="202" y="470" type="curve" smooth="yes"/>
			<point x="616" y="56" type="line" smooth="yes"/>
			<point x="672" y="0"/>
			<point x="744" y="-26"/>
		</contour>
		<contour>
			<point x="824" y="350" type="curve" smooth="yes"/>
			<point x="808" y="350"/>
			<point x="794" y="364"/>
			<point x="794" y="380" type="curve" smooth="yes"/>
			<point x="794" y="396"/>
			<point x="808" y="410"/>
			<point x="824" y="410" type="curve" smooth="yes"/>
			<point x="842" y="410"/>
			<point x="854" y="396"/>
			<point x="854" y="380" type="curve" smooth="yes"/>
			<point x="854" y="364"/>
			<point x="842" y="350"/>
		</contour>
		<contour>
			<point x="792" y="520" type="line"/>
			<point x="792" y="522" type="line" smooth="yes"/>
			<point x="792" y="584"/>
			<point x="828" y="642"/>
			<point x="884" y="672" type="curve" smooth="yes"/>
			<point x="926" y="694"/>
			<point x="954" y="742"/>
			<point x="954" y="796" type="curve" smooth="yes"/>
			<point x="954" y="872"/>
			<point x="892" y="932"/>
			<point x="816" y="932" type="curve" smooth="yes"/>
			<point x="740" y="932"/>
			<point x="678" y="872"/>
			<point x="678" y="796" type="curve"/>
			<point x="618" y="796" type="line"/>
			<point x="618" y="904"/>
			<point x="706" y="992"/>
			<point x="816" y="992" type="curve" smooth="yes"/>
			<point x="924" y="992"/>
			<point x="1014" y="904"/>
			<point x="1014" y="796" type="curve" smooth="yes"/>
			<point x="1014" y="720"/>
			<point x="974" y="654"/>
			<point x="912" y="620" type="curve" smooth="yes"/>
			<point x="876" y="600"/>
			<point x="852" y="562"/>
			<point x="852" y="522" type="curve" smooth="yes"/>
			<point x="852" y="520" type="line"/>
		</contour>
	</outline>
</glyph>
